Land_normalized_Motion_pl03
version=1
nRows=23
nColumns=43
inDegrees=yes
endheader
time		pelvis_tilt		pelvis_list		pelvis_rotation		pelvis_tx		pelvis_ty		pelvis_tz		hip_flexion_r		hip_adduction_r		hip_rotation_r		knee_angle_r		ankle_angle_r		subtalar_angle_r		mtp_angle_r		hip_flexion_l		hip_adduction_l		hip_rotation_l		knee_angle_l		ankle_angle_l		subtalar_angle_l		mtp_angle_l		lumbar_extension		lumbar_bending		lumbar_rotation		neck_flexion		neck_lateral_bending		neck_rotation		arm_flex_r		arm_add_r		arm_rot_r		elbow_flex_r		pro_sup_r		wrist_flex_r		wrist_dev_r		hand_finger_flex_r		arm_flex_l		arm_add_l		arm_rot_l		elbow_flex_l		pro_sup_l		wrist_flex_l		wrist_dev_l		hand_finger_flex_l		
1.230000		1.245378		20.270212		91.951664		0.018257		0.502370		0.515615		68.145143		-4.574583		-0.311556		-130.000186		11.144760		-1.142634		30.858319		65.601587		-2.943710		-0.771004		-128.515098		18.138567		-18.931894		24.466423		-74.754534		0.398419		-0.493228		9.952473		2.439007		-4.362681		53.648628		-31.413212		18.223978		53.690299		102.751160		-26.354933		4.916084		62.321380		49.910914		-32.553490		10.846840		66.664697		124.671158		-27.783312		3.875604		90.000210		
1.232652		1.215711		20.031359		91.933292		0.018145		0.498110		0.514920		68.754856		-4.721379		-0.408628		-130.547758		11.686130		-1.355807		30.759196		66.191974		-3.021616		-0.877861		-129.071840		18.623781		-18.794240		24.534672		-74.656535		0.380740		-0.472935		10.082949		2.469834		-4.398687		55.768782		-31.351206		19.245575		53.977314		102.811192		-26.515988		4.775147		62.220965		52.025259		-32.730904		12.494165		66.980468		124.927184		-27.580788		3.815282		90.000210		
1.235303		1.185967		19.807552		91.915706		0.018094		0.494036		0.514274		69.336167		-4.864711		-0.509222		-131.065321		12.158243		-1.519457		30.362435		66.756554		-3.099528		-0.946910		-129.606316		19.136241		-18.348425		24.569811		-74.552833		0.332272		-0.389913		10.132001		2.576062		-4.500926		57.871944		-31.400071		20.540940		54.183227		102.260988		-27.162697		4.540839		61.945929		54.277500		-32.781174		14.292230		67.126740		124.903238		-27.475592		4.107078		90.000210		
1.237955		1.198434		19.569690		91.883502		0.017978		0.490055		0.513573		69.880065		-5.014491		-0.670025		-131.551114		12.820474		-1.681652		30.271663		67.315169		-3.171174		-1.023767		-130.115136		19.635797		-18.389159		24.584250		-74.482801		0.344753		-0.374479		10.399870		2.532319		-4.528850		59.936701		-31.249907		21.437185		54.493030		102.339961		-27.177194		4.435012		61.856864		56.233380		-32.988767		15.736542		67.606472		125.259175		-27.183646		3.971724		90.000210		
1.240606		1.186614		19.353043		91.865342		0.017811		0.486257		0.512939		70.398709		-5.176023		-0.796639		-132.005875		13.373852		-1.797878		30.120651		67.843620		-3.205365		-1.085356		-130.599904		20.057368		-18.270091		24.578658		-74.405892		0.348387		-0.337847		10.542431		2.537256		-4.565148		62.016382		-31.133778		22.448335		54.672522		102.356122		-27.250020		4.330692		61.669342		58.282581		-33.060488		17.221407		67.884299		125.541216		-26.777197		3.970365		90.000210		
1.243258		1.167773		19.151866		91.852193		0.017663		0.482639		0.512324		70.874802		-5.324413		-0.909188		-132.429441		13.937218		-1.909644		29.936041		68.334400		-3.237183		-1.136827		-131.053542		20.495387		-18.116623		24.563243		-74.347445		0.348029		-0.302726		10.686211		2.543257		-4.625650		64.059021		-31.019655		23.463833		54.853867		102.300359		-27.347876		4.209254		61.423618		60.328630		-33.102116		18.677777		68.151509		125.773994		-26.287863		4.041122		90.000210		
1.245909		1.139952		18.970184		91.834919		0.017490		0.479211		0.511738		71.305894		-5.458069		-0.995887		-132.828361		14.498263		-2.020194		29.718837		68.785449		-3.257210		-1.188819		-131.476417		20.924291		-17.944225		24.541860		-74.311710		0.340873		-0.272506		10.839991		2.549335		-4.691153		66.081807		-30.890862		24.473798		55.011389		102.188335		-27.446899		4.082921		61.139384		62.364732		-33.103774		20.084448		68.395798		125.961451		-25.734390		4.175347		90.000210		
1.248561		1.098238		18.804566		91.818457		0.017304		0.475970		0.511183		71.702025		-5.571478		-1.056085		-133.203226		15.057404		-2.129661		29.469963		69.198300		-3.266943		-1.252292		-131.872088		21.339067		-17.764327		24.518838		-74.295715		0.326515		-0.255016		11.003196		2.555427		-4.756953		68.088866		-30.745058		25.477649		55.141589		102.027889		-27.534594		3.953290		60.828015		64.385858		-33.071204		21.444478		68.620479		126.105450		-25.138870		4.361831		90.000210		
1.251212		1.040442		18.649218		91.807994		0.017155		0.472900		0.510620		72.072360		-5.672681		-1.079041		-133.562299		15.614689		-2.234668		29.193473		69.584903		-3.277117		-1.327301		-132.243975		21.736685		-17.588288		24.497098		-74.295146		0.304632		-0.250403		11.175202		2.563241		-4.821868		70.079632		-30.578131		26.476211		55.246037		101.824486		-27.600099		3.820007		60.496836		66.394220		-33.016659		22.763075		68.823634		126.208325		-24.530367		4.585653		90.000210		
1.253864		0.970962		18.499225		91.791283		0.016925		0.469981		0.510127		72.429744		-5.767955		-1.071488		-133.905256		16.160180		-2.323694		28.895086		69.952527		-3.284615		-1.418284		-132.593086		22.108729		-17.421661		24.476596		-74.304722		0.276618		-0.264175		11.358183		2.573691		-4.884359		72.056048		-30.384683		27.448756		55.327065		101.574873		-27.645161		3.682484		60.147419		68.381439		-32.921745		24.027319		69.002783		126.266918		-23.948358		4.832296		90.000210		
1.256515		0.849477		18.443778		91.783638		0.016654		0.467396		0.509759		72.687732		-5.869517		-0.973659		-134.245470		16.628994		-2.281376		28.209450		70.189033		-3.293540		-1.556615		-132.910638		22.449385		-17.112720		24.394163		-74.416209		0.206198		-0.314476		11.560356		2.670357		-4.936550		74.058092		-30.244156		28.603213		55.363466		100.708982		-27.897934		3.450503		59.453611		70.442603		-32.747103		25.308461		69.126617		125.980711		-23.251093		5.465556		90.000210		
1.259167		0.771113		18.266521		91.773018		0.016431		0.464690		0.509307		73.050765		-5.949835		-0.927117		-134.566383		17.223368		-2.326606		27.753240		70.574213		-3.310359		-1.675967		-133.223709		22.801025		-17.009999		24.341405		-74.405205		0.179091		-0.349933		11.774118		2.663564		-5.004836		75.972170		-30.001354		29.526724		55.430118		100.240740		-27.969225		3.298525		59.001131		72.343128		-32.592493		26.410368		69.294465		125.957802		-22.819355		5.764121		90.000210		
1.261818		0.720706		18.035304		91.764853		0.016180		0.461969		0.508865		73.471315		-6.039983		-0.902080		-134.872752		17.761242		-2.379056		27.564993		71.040340		-3.318041		-1.765812		-133.536696		23.066224		-16.978086		24.328388		-74.328707		0.179300		-0.361239		11.947834		2.637626		-5.071323		77.836074		-29.705901		30.309419		55.469245		100.195999		-27.845264		3.215819		58.769509		74.194803		-32.408400		27.476211		69.392568		126.131304		-22.605844		5.762125		90.000210		
1.264470		0.649865		17.836520		91.766005		0.015947		0.459430		0.508461		73.853034		-6.146334		-0.845911		-135.167511		18.249361		-2.356246		27.350121		71.462421		-3.322457		-1.859065		-133.835171		23.302353		-16.863240		24.314360		-74.284222		0.159726		-0.368891		12.113095		2.661589		-5.154318		79.675533		-29.444069		31.118700		55.489374		100.017530		-27.758576		3.099422		58.432230		76.089144		-32.167276		28.590480		69.406974		126.168651		-22.455331		5.825300		90.000210		
1.267121		0.577952		17.631850		91.771236		0.015742		0.456990		0.508061		74.225242		-6.255743		-0.779723		-135.452464		18.745929		-2.289407		27.127915		71.889289		-3.331799		-1.943326		-134.124459		23.530887		-16.710743		24.300898		-74.233554		0.133470		-0.368927		12.283658		2.700876		-5.253422		81.468761		-29.190188		31.909552		55.505333		99.744725		-27.709556		2.967466		58.007069		77.977247		-31.887516		29.697872		69.370604		126.125995		-22.426631		5.907913		90.000210		
1.269773		0.515159		17.411429		91.773051		0.015538		0.454634		0.507670		74.598423		-6.373353		-0.712702		-135.718429		19.249602		-2.187312		26.907239		72.331378		-3.346458		-2.003663		-134.407653		23.743210		-16.521167		24.290705		-74.165009		0.106635		-0.354625		12.445785		2.748123		-5.360580		83.217562		-28.936407		32.676324		55.514231		99.434177		-27.687026		2.833443		57.513343		79.842887		-31.576094		30.795493		69.287026		126.052047		-22.544302		5.978767		90.000210		
1.272424		0.462260		17.176912		91.773771		0.015354		0.452348		0.507296		74.970891		-6.491470		-0.653584		-135.967437		19.762568		-2.048992		26.689202		72.790965		-3.365698		-2.036274		-134.687722		23.943281		-16.282251		24.289032		-74.078340		0.081224		-0.327062		12.599954		2.799102		-5.473192		84.924203		-28.678006		33.415591		55.509984		99.121932		-27.682105		2.700921		56.959500		81.684732		-31.237475		31.893649		69.156820		125.971300		-22.818950		6.022948		90.000210		
1.275076		0.422349		16.931080		91.775377		0.015181		0.450130		0.506886		75.337683		-6.613502		-0.592150		-136.203986		20.281022		-1.875724		26.480850		73.260910		-3.400057		-2.034447		-134.965565		24.134484		-15.987387		24.302497		-73.973212		0.061234		-0.286070		12.747564		2.848179		-5.586339		86.573955		-28.405748		34.100544		55.486486		98.849513		-27.682993		2.573056		56.367134		83.483824		-30.878803		32.971917		68.986238		125.905132		-23.239440		6.031135		90.000210		
1.277727		0.387867		16.683540		91.777076		0.015002		0.448008		0.506486		75.691653		-6.741174		-0.522276		-136.423782		20.805780		-1.614989		26.233601		73.725190		-3.437833		-2.001331		-135.241356		24.339085		-15.584113		24.341445		-73.861894		0.042537		-0.236250		12.890719		2.905303		-5.698282		88.179279		-28.134031		34.748420		55.452849		98.566804		-27.685272		2.428690		55.641641		85.252914		-30.506341		34.087760		68.773279		125.802938		-23.913750		6.020578		90.000210		
1.280379		0.345916		16.504713		91.780436		0.014789		0.446145		0.506097		75.955533		-6.879449		-0.380153		-136.639188		21.336985		-1.014377		25.575180		74.081438		-3.480196		-1.930585		-135.511972		24.680211		-14.815899		24.436405		-73.822658		0.008970		-0.159244		13.082523		3.034820		-5.808979		89.728562		-27.955819		35.447693		55.476637		97.741971		-27.754221		2.151133		54.048954		87.055227		-30.103097		35.474259		68.441298		125.197546		-25.827080		6.131294		90.000210		
1.283030		0.322673		16.181636		91.779941		0.014547		0.444034		0.505659		76.372604		-7.023383		-0.346211		-136.838705		21.884361		-0.985850		25.524647		74.625660		-3.515370		-1.904641		-135.770659		24.735558		-14.664440		24.473522		-73.608390		0.030995		-0.144419		13.132900		2.966148		-5.892829		91.240067		-27.504123		35.860644		55.326992		97.963668		-27.553773		2.170808		53.812786		88.601049		-29.759332		36.265824		68.299962		125.462657		-25.955385		5.997376		90.000210		
1.285682		0.304071		15.888456		91.809594		0.014232		0.442060		0.505232		76.756174		-7.207412		-0.241324		-137.032019		22.342263		-0.614701		25.471314		75.131214		-3.528953		-1.821074		-136.029391		24.856031		-14.239340		24.561519		-73.425775		0.071319		-0.105512		13.223426		2.978967		-5.965983		92.705572		-27.128046		36.282799		55.215298		98.189157		-27.408426		2.091214		53.413542		90.173825		-29.402318		37.168695		68.136964		125.688879		-26.149863		5.866287		90.000210		
1.288333		0.276614		15.611322		91.829644		0.013843		0.440328		0.504848		77.102152		-7.405034		-0.114775		-137.184794		22.762912		-0.209652		25.442243		75.582352		-3.536544		-1.753487		-136.250150		24.997633		-13.791567		24.661241		-73.268407		0.107091		-0.061559		13.338029		2.977975		-6.021993		94.097082		-26.714132		36.547730		55.093049		98.358882		-27.320684		1.997069		53.001513		91.625053		-28.972761		37.848094		67.978875		125.846491		-26.333558		5.773204		90.000210		
